<?xml version="1.0"?><svg width="60" height="60" xmlns="http://www.w3.org/2000/svg" xmlns:xlink="http://www.w3.org/1999/xlink">
 <defs>
  <linearGradient id="linearGradient772">
   <stop stop-color="#000" offset="0" id="stop773"/>
   <stop stop-color="#fff" offset="1" id="stop774"/>
  </linearGradient>
  <linearGradient xlink:href="#linearGradient772" id="linearGradient775"/>
 </defs>
 <g>
  <title>Layer 1</title>
  <path stroke-width="1.0000000pt" fill="#ff7f00" id="path860" d="m28.18154,25.211571c0,-0.498991 0.12475,-0.96159 0.374241,-1.38781c0.25989,-0.436611 0.60294,-0.784861 1.02916,-1.04475c0.42622,-0.259892 0.888821,-0.389832 1.38781,-0.389832c0.48859,0 0.94599,0.12994 1.37221,0.389832c0.42622,0.25989 0.764072,0.608139 1.013561,1.04475c0.259888,0.42622 0.389839,0.888819 0.389839,1.38781c0,0.509378 -0.129951,0.98238 -0.389839,1.418989c-0.249489,0.42622 -0.592541,0.76408 -1.02916,1.013571c-0.42621,0.249489 -0.878422,0.374239 -1.356611,0.374239c-0.4886,0 -0.9512,-0.12475 -1.38781,-0.374239c-0.42622,-0.249491 -0.76927,-0.587351 -1.02916,-1.013571c-0.249491,-0.436609 -0.374241,-0.909611 -0.374241,-1.418989zm-6.424459,2.60409l-1.37221,-1.200691c-1.62171,0.9356 -3.524101,1.4034 -5.707161,1.4034c-1.66329,0 -3.186239,-0.28068 -4.56885,-0.842039c-1.38261,-0.561361 -2.5677,-1.36702 -3.55528,-2.416971c-0.97718,-1.04995 -1.73086,-2.318209 -2.26103,-3.80477c-0.53018,-1.49696 -0.79526,-3.144659 -0.79526,-4.94309c0,-1.798429 0.26508,-3.440929 0.79526,-4.927489c0.54056,-1.49696 1.29944,-2.76522 2.27662,-3.80478c0.97718,-1.03955 2.15708,-1.84001 3.53969,-2.40137c1.38261,-0.56136 2.90556,-0.84204 4.56885,-0.84204c1.66329,0 3.186241,0.28068 4.56885,0.84204c1.393002,0.56136 2.572901,1.36182 3.53968,2.40137c0.97719,1.03956 1.730871,2.30782 2.26104,3.80478c0.540571,1.48656 0.81085,3.12906 0.81085,4.927489c0,2.952341 -0.68091,5.431681 -2.04273,7.438021l1.23188,1.091539c0.654921,0.540571 1.096731,0.997971 1.32543,1.37221c0.228701,0.36384 0.34305,0.753681 0.34305,1.1695c0,0.63413 -0.207909,1.164301 -0.62373,1.590521c-0.415819,0.436619 -0.92001,0.654921 -1.51255,0.654921c-0.30147,0 -0.58215,-0.04158 -0.842039,-0.12475c-0.249491,-0.08316 -0.519779,-0.228701 -0.81086,-0.436611c-0.291071,-0.207909 -0.68091,-0.524969 -1.1695,-0.951189zm-7.07937,-18.9615c-1.257859,0 -2.313009,0.33266 -3.165449,0.99797c-0.85243,0.66532 -1.476171,1.54894 -1.871201,2.65087c-0.39503,1.09153 -0.59255,2.26104 -0.59255,3.508499c0,1.25787 0.19752,2.437761 0.59255,3.53969c0.39503,1.101931 1.01877,1.98555 1.871201,2.65086c0.85244,0.665321 1.90759,0.99798 3.165449,0.99798c0.58215,0 1.101931,-0.077969 1.55933,-0.2339l-0.06237,-0.031189c-0.665319,-0.592541 -1.107129,-1.06554 -1.325429,-1.418991c-0.21831,-0.353449 -0.32746,-0.732889 -0.32746,-1.138309c0,-0.644529 0.20271,-1.1747 0.60814,-1.590519c0.41582,-0.42622 0.9252,-0.63933 1.52814,-0.63933c0.44701,0 0.857639,0.098759 1.23188,0.296268c0.38463,0.197521 0.909609,0.59775 1.574921,1.200691l0.155939,0.12475c0.44701,-1.122721 0.670509,-2.375391 0.670509,-3.758001c0,-1.289049 -0.197519,-2.474139 -0.592548,-3.55528c-0.395031,-1.08114 -1.018761,-1.94917 -1.871201,-2.60409c-0.842041,-0.66531 -1.891991,-0.99797 -3.149851,-0.99797z"/>
  <path stroke-width="1.0000000pt" fill="#ff7f00" id="path859" d="m28.18154,54.14753c0,-0.498989 0.12475,-0.96159 0.374241,-1.387798c0.25989,-0.436623 0.60294,-0.78487 1.02916,-1.044762c0.42622,-0.259892 0.888821,-0.389828 1.38781,-0.389828c0.48859,0 0.94599,0.129936 1.37221,0.389828c0.42622,0.259892 0.764072,0.608139 1.013569,1.044762c0.259892,0.426208 0.389832,0.888809 0.389832,1.387798c0,0.50938 -0.12994,0.98238 -0.389832,1.418991c-0.249496,0.42622 -0.592548,0.76408 -1.029167,1.013569c-0.42621,0.2495 -0.878422,0.374241 -1.356611,0.374241c-0.4886,0 -0.9512,-0.124741 -1.38781,-0.374241c-0.42622,-0.249489 -0.76927,-0.587349 -1.02916,-1.013569c-0.249491,-0.436611 -0.374241,-0.909611 -0.374241,-1.418991zm-21.035409,-2.884758l4.98986,-13.566212c0.44701,-1.19548 0.81606,-2.079109 1.10713,-2.65086c0.29108,-0.58215 0.69131,-1.07074 1.20069,-1.465778c0.509379,-0.405422 1.1747,-0.608143 1.99595,-0.608143c0.842039,0 1.522949,0.202721 2.042719,0.608143c0.53018,0.40543 0.946001,0.91481 1.247471,1.528149c0.311871,0.60294 0.675711,1.465771 1.09153,2.58849l4.974279,13.566212c0.311861,0.821239 0.514582,1.455368 0.608141,1.902378c0.103951,0.436611 0.15593,0.878429 0.15593,1.325439c0,0.64452 -0.228701,1.164303 -0.6861,1.55933c-0.44701,0.38464 -1.04476,0.57695 -1.79324,0.57695c-0.519779,0 -0.95639,-0.103951 -1.309839,-0.311859c-0.353451,-0.20792 -0.63933,-0.498989 -0.857632,-0.87323c-0.20792,-0.374241 -0.395029,-0.83165 -0.561359,-1.372219l-0.623739,-2.042721l-8.49837,0l-0.63932,2.042721c-0.27028,0.842049 -0.59775,1.481369 -0.98238,1.917988c-0.37424,0.426212 -0.95119,0.63932 -1.73086,0.63932c-0.738091,0 -1.34103,-0.19231 -1.80883,-0.57695c-0.45741,-0.395027 -0.68611,-0.91481 -0.68611,-1.55933c0,-0.38464 0.04159,-0.78487 0.12475,-1.200687c0.09356,-0.42622 0.30667,-1.101933 0.63933,-2.02713zm12.038049,-4.085461l-2.58849,-8.404812l-0.06237,0l-2.77562,8.404812l5.426479,0z"/>
  <path fill="#ff7f00" fill-rule="evenodd" stroke="#7f7f7f" stroke-width="3.125" stroke-linejoin="round" stroke-linecap="round" id="path861" d="m39.228199,9.00078l15.295403,0"/>
  <path fill="#ff7f00" fill-rule="evenodd" stroke="#7f7f7f" stroke-width="3.125" stroke-linejoin="round" stroke-linecap="round" id="path864" d="m39.228199,16.50078l15.295403,0"/>
  <path fill="none" fill-rule="evenodd" stroke="#7f7f7f" stroke-width="3.125" stroke-linejoin="round" stroke-linecap="round" fill-opacity="0.75" id="path865" d="m39.228199,24.00078l15.295403,0"/>
  <path fill="none" fill-rule="evenodd" stroke="#7f7f7f" stroke-width="3.125" stroke-linejoin="round" stroke-linecap="round" fill-opacity="0.75" id="path866" d="m39.228199,37.54958l15.295403,0"/>
  <path fill="none" fill-rule="evenodd" stroke="#7f7f7f" stroke-width="3.125" stroke-linejoin="round" stroke-linecap="round" fill-opacity="0.75" id="path867" d="m39.228199,45.04958l15.295403,0"/>
  <path fill="none" fill-rule="evenodd" stroke="#7f7f7f" stroke-width="3.125" stroke-linejoin="round" stroke-linecap="round" fill-opacity="0.75" id="path868" d="m39.228199,52.54958l15.295403,0"/>
 </g>
</svg>